<svg width="106" height="39" viewBox="0 0 106 39" fill="none" xmlns="http://www.w3.org/2000/svg">
<rect width="106" height="39" rx="12" fill="#F67906"/>
<path d="M31.244 23.876H24.842L23.742 27H21.124L26.602 11.688H29.506L34.984 27H32.344L31.244 23.876ZM30.54 21.83L28.054 14.724L25.546 21.83H30.54ZM39.8738 10.72V27H37.3658V10.72H39.8738ZM45.6746 16.66C46.0999 16.1027 46.6793 15.6333 47.4126 15.252C48.1459 14.8707 48.9746 14.68 49.8986 14.68C50.9546 14.68 51.9153 14.944 52.7806 15.472C53.6606 15.9853 54.3499 16.7113 54.8486 17.65C55.3473 18.5887 55.5966 19.6667 55.5966 20.884C55.5966 22.1013 55.3473 23.194 54.8486 24.162C54.3499 25.1153 53.6606 25.8633 52.7806 26.406C51.9153 26.934 50.9546 27.198 49.8986 27.198C48.9746 27.198 48.1533 27.0147 47.4346 26.648C46.7159 26.2667 46.1293 25.7973 45.6746 25.24V32.764H43.1666V14.878H45.6746V16.66ZM53.0446 20.884C53.0446 20.048 52.8686 19.3293 52.5166 18.728C52.1793 18.112 51.7246 17.65 51.1526 17.342C50.5953 17.0193 49.9939 16.858 49.3486 16.858C48.7179 16.858 48.1166 17.0193 47.5446 17.342C46.9873 17.6647 46.5326 18.134 46.1806 18.75C45.8433 19.366 45.6746 20.092 45.6746 20.928C45.6746 21.764 45.8433 22.4973 46.1806 23.128C46.5326 23.744 46.9873 24.2133 47.5446 24.536C48.1166 24.8587 48.7179 25.02 49.3486 25.02C49.9939 25.02 50.5953 24.8587 51.1526 24.536C51.7246 24.1987 52.1793 23.7147 52.5166 23.084C52.8686 22.4533 53.0446 21.72 53.0446 20.884ZM64.3468 14.68C65.2708 14.68 66.0921 14.878 66.8108 15.274C67.5441 15.67 68.1161 16.2567 68.5268 17.034C68.9521 17.8113 69.1648 18.75 69.1648 19.85V27H66.6788V20.224C66.6788 19.1387 66.4074 18.31 65.8648 17.738C65.3221 17.1513 64.5814 16.858 63.6428 16.858C62.7041 16.858 61.9561 17.1513 61.3988 17.738C60.8561 18.31 60.5848 19.1387 60.5848 20.224V27H58.0768V10.72H60.5848V16.286C61.0101 15.7727 61.5454 15.3767 62.1908 15.098C62.8508 14.8193 63.5694 14.68 64.3468 14.68ZM71.5279 20.884C71.5279 19.6667 71.7772 18.5887 72.2759 17.65C72.7892 16.7113 73.4785 15.9853 74.3439 15.472C75.2239 14.944 76.1919 14.68 77.2479 14.68C78.2012 14.68 79.0299 14.8707 79.7339 15.252C80.4525 15.6187 81.0245 16.0807 81.4499 16.638V14.878H83.9799V27H81.4499V25.196C81.0245 25.768 80.4452 26.2447 79.7119 26.626C78.9785 27.0073 78.1425 27.198 77.2039 27.198C76.1625 27.198 75.2092 26.934 74.3439 26.406C73.4785 25.8633 72.7892 25.1153 72.2759 24.162C71.7772 23.194 71.5279 22.1013 71.5279 20.884ZM81.4499 20.928C81.4499 20.092 81.2739 19.366 80.9219 18.75C80.5845 18.134 80.1372 17.6647 79.5799 17.342C79.0225 17.0193 78.4212 16.858 77.7759 16.858C77.1305 16.858 76.5292 17.0193 75.9719 17.342C75.4145 17.65 74.9599 18.112 74.6079 18.728C74.2705 19.3293 74.1019 20.048 74.1019 20.884C74.1019 21.72 74.2705 22.4533 74.6079 23.084C74.9599 23.7147 75.4145 24.1987 75.9719 24.536C76.5439 24.8587 77.1452 25.02 77.7759 25.02C78.4212 25.02 79.0225 24.8587 79.5799 24.536C80.1372 24.2133 80.5845 23.744 80.9219 23.128C81.2739 22.4973 81.4499 21.764 81.4499 20.928Z" fill="white"/>
</svg>
